<?xml version="1.0" encoding="UTF-8"?>
<svg xmlns="http://www.w3.org/2000/svg" version="1.1" viewBox="0 0 1000 1000">
  <!-- Generator: Adobe Illustrator 28.7.1, SVG Export Plug-In . SVG Version: 1.2.0 Build 142)  -->
  <g>
    <g id="Warstwa_1">
      <g id="Yz97a4">
        <g>
          <path d="M89.78,418.36c-.67-3.76-1.01-7.62-2.08-11.28-7.84-26.79-15.83-53.55-23.77-80.31-.99-3.35-2.05-6.68-3.01-10.04-2.17-7.6-5.29-14.69-11.22-20.31-.89-.85-1.61-1.9-2.28-2.94-3.69-5.71-2.4-10.58,3.71-13.89,1.28-.69,2.64-1.31,4.04-1.69,22.4-6.17,44.66-12.9,67.27-18.25,17.23-4.08,34.56-3.15,51.16,4.13,7.87,3.45,11.81,2.09,15.81-5.63,6.02-11.62,13.31-22.3,22.44-31.8,15.46-16.1,34.06-26.38,56.66-29.27,3.53-.45,7.11-.69,10.58-1.41,5.43-1.13,7.02-3.86,5.15-8.99-1.19-3.26-3.01-6.3-4.49-9.47-10.88-23.43-13.37-47.37-3.31-71.59,11.56-27.84,33-43.73,63.44-47.88,15.38-2.1,30.6-1.58,45.21,4.15,10.73,4.21,19.26,10.84,22.99,22.08,5.21,15.68-4.73,28.85-21.57,28.59-6.23-.1-12.19-1.56-17.26-5.04-5.64-3.87-10.91-8.28-16.23-12.58-4.36-3.52-8.24-7.68-12.89-10.77-11.33-7.51-22.9-3.54-26.63,9.29-1.46,5.02-2.03,10.62-1.45,15.79,2.36,21.01,9.56,40.31,23.62,56.7,6.7,7.8,14.51,14.28,25.04,16.71,2.03.47,4.14,1.04,6.19.94,8.11-.39,11.14-4.79,10.77-10.76-.51-8.2-2.51-15.75-7.91-22.23-1.59-1.9-3.29-3.76-4.57-5.86-2.96-4.86-1.7-9.48,3.62-11.62,4.22-1.69,8.81-2.62,13.31-3.52,5.75-1.15,11.56-2,17.36-2.84,8.23-1.19,14.12-5.24,18.58-12.25,3.73-5.86,8.2-11.5,13.31-16.24,14.31-13.28,31.85-17.53,51.18-15.82,3.55.31,7.09.9,10.63.94,6.1.07,7.87-1.81,8.07-7.59.2-5.75-1.85-10.84-4.56-15.77-1.09-1.99-2.34-3.91-3.17-6-1.91-4.77-.5-8.45,4.24-10.66,2.44-1.13,5.09-2,7.75-2.47,16.51-2.89,32.97-6.29,49.6-8.24,17.09-2.01,33.93-.26,49.54,7.92,18.32,9.61,28.68,24.85,32.58,44.38,1.36,6.78,1.27,13.84,1.8,20.78.14,1.84-.11,3.73.23,5.53.55,2.95,2.82,4.36,5.55,3.11,2.61-1.2,5.09-2.92,7.23-4.83,9.46-8.44,18.83-16.97,28.13-25.57,10.53-9.73,20.99-19.54,31.42-29.37,1.8-1.7,3.6-3.5,4.93-5.54,2.32-3.56,1.68-7.02-2.02-8.98-7.46-3.95-15.63-6.2-24.03-6.68-6.54-.38-12.03,3.05-17.08,6.97-2.62,2.04-5.33,4.04-8.22,5.67-2.88,1.62-5.95,3.12-9.12,4.03-4.01,1.14-7.96.48-11.07-2.61-3.25-3.22-3.38-7.22-1.51-10.85,4.13-8.04,8.36-16.09,13.31-23.67,3.52-5.39,9.18-7.67,15.9-5.86,11.32,3.04,22.65,6.06,33.93,9.26,21.55,6.11,43.07,12.33,64.59,18.55,3.01.87,6.04,1.83,8.86,3.14,7.37,3.41,9.2,9.76,4.37,16.14-2.73,3.6-6.12,6.76-9.43,9.9-19.91,18.86-39.91,37.64-59.84,56.49-10.1,9.56-20.13,19.19-30.13,28.84-1.63,1.57-3.25,3.27-4.39,5.19-2.04,3.44-1.41,6.41,2.12,8.44,6.04,3.47,12.73,5.44,19.71,5.81,5.13.27,8.19-3.04,8.1-8.1-.03-1.81-.6-3.62-.99-5.42-.51-2.4-1.31-4.76-1.57-7.19-.59-5.57,1.91-8.78,7.58-9.06,5.22-.26,10.5,0,15.73.37,6.89.48,13.76,1.28,20.64,1.95.83.08,1.66.21,2.49.34,10.2,1.52,13.44,6.78,8.35,15.36-6.31,10.63-6.58,22.26-7.7,33.85-.22,2.24-.47,4.52-.3,6.75.5,6.63,3.94,9.58,10.73,9.25,4.18-.2,8.34-.93,12.52-.97,6.48-.08,9.44,2.38,9.73,8.64.32,7.21,3.09,13.04,8.36,17.94,12.18,11.32,24.29,22.71,36.5,33.99,1.65,1.53,3.64,2.82,5.68,3.82,3.3,1.63,5.19.85,6.14-2.59.53-1.92.73-4.08.43-6.04-1.75-11.54-3.74-23.05-5.55-34.59-.84-5.35-2.66-10.31-5.53-14.92-.65-1.05-1.33-2.1-1.84-3.21-2.66-5.8-1.16-10.48,4.98-12.17,5.56-1.53,11.52-2.12,17.32-2.24,4.54-.09,6.56,2.66,6.75,7.27.06,1.63.08,3.34-.34,4.89-1.96,7.12-1.38,14.18-.13,21.33,3.04,17.36,5.96,34.75,8.77,52.15,1.23,7.64,5.63,12.11,13.2,13.81,4.29.96,8.61,1.82,12.91,2.78,1.42.32,2.85.7,4.22,1.19,7.69,2.78,9.74,6.96,5.77,13.72-3.6,6.13-4.12,12.35-2.73,18.94,3.56,16.86,7.19,33.7,10.83,50.53,1.91,8.82,4.63,13.79,15.88,6.56,13.68-8.8,28.89-10.87,44.41-4.67,4.33,1.73,8.19,4.87,11.81,7.88,2.94,2.45,4.16,6.09,4.35,9.93.41,8.36-7.08,14.12-15.07,11.09-3.38-1.28-6.42-3.75-9.16-6.17-2.3-2.04-3.83-4.87-5.87-7.21-1.48-1.7-3.06-3.42-4.93-4.67-4.95-3.34-8.94-2.51-12.36,2.36-2.47,3.5-3.26,7.5-3.3,11.67-.09,9.7,2.18,18.7,8.39,26.48,7.24,9.07,16.88,11.2,27.36,6.13,1.69-.82,3.33-1.79,5.1-2.38,6.13-2.05,10.15,1.35,8.86,7.54-1.17,5.62-4.31,10.19-8.65,13.98-1.39,1.22-2.92,2.3-4.72,3.7,1.64,2.21,3.39,4.19,4.69,6.42,7.4,12.65,7.58,25.83,2.1,39.07-4.28,10.35-10.47,19.66-18.41,27.72-5.98,6.06-7.64,12.88-5.41,20.9,2.06,7.43,1.99,15.01.77,22.56-.78,4.82.16,9.34,1.68,13.89,1.3,3.88,2.6,7.8,3.36,11.81,4.47,23.46-14.41,46.58-38.91,47.7-7.46.34-14.47,1.85-20.94,5.71-12.48,7.44-26.13,10.58-40.43,7.56-11.55-2.44-22.88-1.5-34.37-.82-4.57.27-9.21-.12-13.8-.5-5.89-.49-10.14-4.07-13.48-8.33-5.6-7.15-12.4-9.03-21.51-8.09-8.22.85-16.72-.5-25.06-1.26-16.26-1.47-30.84-7.51-44.36-16.22-.7-.45-1.4-.92-2.14-1.3-6.15-3.16-10.03-1.82-11.95,4.84-1.47,5.09-2.58,10.42-2.81,15.69-.77,17.68-4.89,34.88-7.12,52.34-1.03,8.1-.72,16.37-1.07,24.56-.12,2.86-.42,5.71-.61,8.56-.74,10.94-7.25,17.16-17.59,19.84-8.1,2.09-16.33,3.68-24.5,5.5-2.66.59-5.39,1-7.94,1.91-5.4,1.92-6.96,5.68-4.49,10.73.99,2.01,2.39,3.87,3.84,5.62,7.25,8.78,14.22,17.8,21.96,26.15,9.06,9.78,20.02,17.46,31.31,24.63,3.76,2.39,7.87,2.74,12.11,1.56,9.92-2.77,17.42-7.83,19.3-18.69,1.75-10.09,3.66-20.17,5.93-30.16,4.8-21.14,14.29-39.83,31.39-54.16,13.53-11.34,29.77-15.54,47.21-15.96,9.66-.23,19.34-.43,28.48,3.62,15.65,6.93,28.13,17.09,34.96,32.87,4.5,10.39,8.73,20.95,9.75,32.31,1.89,21.04,1.02,41.48-9.12,61.13-10.61,20.57-21.65,40.78-35.56,59.39-4.53,6.05-6.58,12.28-3.5,19.54,1.83,4.33.85,8.52-1.12,12.48-6.6,13.22-14.61,25.43-27.19,34.08-6.52,4.49-13.03,9.04-19.92,12.94-14.27,8.06-29.65,9.88-45.52,5.7-9.71-2.56-19.42-5.41-28.72-9.1-5.71-2.27-11.12-5.84-15.86-9.76-7.16-5.91-11.25-13.76-11.12-23.18.08-5.93.45-11.87.93-17.79.43-5.36.74-10.7-1.58-15.73-4.24-9.17-5.93-18.74-5.26-28.75.12-1.84-.18-3.72.05-5.54.9-7.07-2.49-12.2-7.47-16.77-4.9-4.49-9.52-9.3-14.57-13.63-15.07-12.95-27.49-28.18-39.69-43.61-6.68-8.44-13.46-16.8-19.87-25.43-5.09-6.86-11.28-10.02-20.03-8.06-6.74,1.51-13.66,2.26-20.37,3.89-15.17,3.7-30.6,4.86-46.13,5.46-11.46.44-14.14,4.73-8.77,14.43,6.49,11.72,13.32,23.26,20.13,34.8,2.63,4.46,6.67,7.27,11.91,8.37,4.31.9,8.69,1.62,12.86,2.95,15.6,4.99,26.28,15.22,31.63,30.28,2.98,8.38,7.47,15.41,14.15,21.4,5.78,5.19,9.74,11.76,12.5,18.97,4.26,11.14,3.03,21.68-3.55,31.68-5.51,8.37-12.84,15.12-20.05,22.02-20.96,20.07-47.03,28.44-75.36,31.85-21.26,2.56-42.55,3.87-64.02,4-20.76.13-40.39-3.94-59.7-10.74-13.13-4.63-25.13-11.33-36.84-18.56-8.77-5.41-14.99-13.07-19.12-22.32-4.45-9.97-8.1-20.17-10.37-30.9-4.3-20.38,2.1-36.76,18.54-49.6,10.42-8.14,22.31-13.85,34.53-18.81,11.97-4.85,24.41-3.51,36.54-.57,8.94,2.16,17.78,4.97,26.33,8.29,8.96,3.48,16.52,2.76,23.84-3.63,4.83-4.22,10.31-7.75,15.62-11.42,7.53-5.21,8.65-9.1,4.45-17.24-1.6-3.11-3.57-6.04-5.18-9.14-3.98-7.66-8.12-15.26-11.69-23.11-4.69-10.31-8.51-13.3-20.22-12.95-9.83.29-19.64,1.41-29.47,2.07-3.56.24-7.14.39-10.7.24-8.46-.35-13.72-4.71-15.09-12.97-.87-5.23-1.15-10.58-1.33-15.89-.3-9.21-.16-18.44-.49-27.65-.49-13.72-1.36-27.43-1.81-41.15-.3-9.03-.12-18.07-.21-27.1-.02-1.84.05-3.74-.4-5.5-1.12-4.39-4.26-5.89-8.59-4.22-1.55.6-3.13,1.32-4.42,2.33-9.6,7.51-20.81,12.32-31.56,17.86-5.91,3.05-12.06,5.77-18.33,8.02-7.72,2.77-12.76,7.59-14.96,15.34-.73,2.56-1.64,5.08-2.64,7.55-2.82,6.97-7.6,12.09-14.58,15.44-8.56,4.12-9.74,7.78-5.23,16.25,3.1,5.82,6.76,11.34,10.05,17.06,2.98,5.17,6.32,10.28,6.04,16.56-.09,2.02-.18,4.24-1.07,5.98-4.31,8.39-9.97,15.65-18.98,19.8-6.84,3.15-13.05,2.17-18.6-2.78-1.55-1.38-3-2.88-4.35-4.45-11.03-12.9-21.91-25.93-33.09-38.69-4.22-4.82-9.01-9.19-13.79-13.5-3.2-2.89-7.05-4.05-11.62-3.04-6.97,1.53-14.03,2.43-21.24,1.47-9.55-1.27-15.2-6.6-16.36-15.84-.31-2.44-.71-4.88-.8-7.32-.19-4.8-2.86-7.57-7.33-8.86-3.21-.93-6.56-1.43-9.72-2.48-8-2.65-12.27-8.41-12.43-16.62-.05-2.66.17-5.33.43-7.98.55-5.47-1.39-9.6-6.43-12.29-2.02-1.08-3.93-2.38-5.87-3.6-9.88-6.24-14.27-19.98-4.79-30.97,1.62-1.88,3.38-3.66,4.94-5.58,3.19-3.93,3.9-8.09.86-12.47-.12-.17-.15-.4-.28-.55-12.05-12.58-17.61-29.28-28.56-42.63-6.8-8.29-12.16-17.69-18.43-26.41-3.01-4.18-6.34-8.22-10.03-11.83-3.38-3.3-7.15-6.45-11.28-8.75-15.13-8.44-23.7-21.5-29.17-37.18-5.65-16.21-7.09-32.83-6.19-49.75.49-9.31,3.19-18.09,7.1-26.6,5.06-11.02,9.71-22.22,14.63-33.3,1.24-2.81,2.42-5.77,4.28-8.16,4.93-6.32,12.98-5.33,15.91,2.08,1.48,3.75,1.77,7.95,2.49,11.97,1.3,7.25,2.17,14.59,3.88,21.75,2.14,8.98,7.97,15.26,16.76,18.69,5.59,2.18,11.3,4.03,16.96,6.04.51-.44,1.01-.88,1.52-1.32ZM467.01,761.66v-.47c13.67,0,27.35.38,41-.12,10.23-.38,20.46-1.62,30.62-2.97,6.42-.85,12.69-2.75,19.07-3.93,23.09-4.28,46.38-6.93,69.82-8.69,9.56-.72,19.09-2.7,28.46-4.85,8.96-2.05,11.54-6.03,11.81-14.94.21-6.97.27-13.98,1.13-20.88,2.05-16.45,4.6-32.84,6.8-49.27,1.63-12.21,2.6-24.47,2.14-36.81-.11-2.86-.23-5.74-.05-8.59.69-11.04,1.73-22.06,2.21-33.11.42-9.49,2.51-18.61,4.57-27.84,1.55-6.93,1.85-14.22,1.86-21.35.01-12.09-.81-24.18-.95-36.28-.07-5.97,1.14-11.85,3.86-17.28,3.1-6.17,7.7-10.8,14.79-12.36,4.89-1.07,9.85-2.14,14.83-2.54,7.73-.63,15.51-.66,23.26-1,17.6-.77,35.21-1.5,52.81-2.39,4.38-.22,8.83-.57,13.06-1.62,4.48-1.11,5.48-2.9,4.63-7.26-1.25-6.43-2.69-12.79-7.51-17.93-2.68-2.85-4.66-6.32-7-9.47-14.26-19.26-27.1-39.47-43.41-57.34-16.74-18.35-32.3-37.73-48.21-56.79-12.2-14.62-24.12-29.45-36.18-44.17-2.1-2.56-4.18-5.15-6.48-7.52-14.25-14.67-24.7-32.08-36.71-48.36-.61-.82-1.05-1.78-1.46-2.72-4.49-10.38-12.22-18.6-19.23-27.27-3.48-4.31-8.24-5.87-14.08-4.41-6.45,1.61-12.4,4.24-17.39,8.35-12.35,10.17-24.54,20.55-36.51,31.15-5.24,4.63-6.52,10.82-4.61,17.51,1.68,5.88,5.25,7.69,10.93,5.14,3.42-1.53,6.46-3.85,9.84-5.47,2.97-1.43,6.1-2.73,9.31-3.46,3.34-.77,6.21.65,8,3.62,1.67,2.77,1.47,5.76-.51,8.09-2.24,2.64-4.94,4.99-7.74,7.08-5.5,4.11-11.15,8.03-16.83,11.91-7.54,5.16-11.48,11.89-11.98,21.13-.61,11.05-8.86,13.63-16.83,13.26-2.09-.1-4.16-.43-6.23-.74-7.5-1.1-12.59,2.08-15.78,8.52-2.11,4.24-3.83,8.68-6.15,12.81-2.21,3.91-4.59,7.86-7.6,11.18-3.15,3.48-6.95,3.71-10.24,1.76-3.12-1.85-4.43-5.49-3.38-9.76.34-1.39.91-2.73,1.5-4.04,1.71-3.74,3.5-7.45,5.22-11.19,2.93-6.35,5.71-12.78,8.78-19.06,3.38-6.92,8.78-10.83,17.02-10.19,2.08.16,4.24.17,6.29-.16,3.5-.56,6.49-2.13,7.38-5.8,1.78-7.32,1.46-14.7-.55-21.89-1.15-4.11-4.46-5.27-8.43-3.35-2.23,1.07-4.37,2.49-6.2,4.14-17.01,15.27-33.76,30.81-50.94,45.89-13.57,11.92-27.29,23.73-41.57,34.81-13.84,10.74-27.04,22.08-39.68,34.12-8.41,8.01-17.07,15.78-25.77,23.5-10.87,9.65-22.2,18.8-31.85,29.73-10,11.33-20.38,22.36-30.51,33.58-5.13,5.69-10.2,11.44-15.07,17.33-1.69,2.04-3.5,5.07-1.4,7.24,1.57,1.62,4.8,1.73,7.3,2.46.38.11.84-.02,1.25-.08,19.46-3.01,38.99-5.59,58.34-9.16,15.37-2.84,30.87-3.11,46.35-3.67,11.52-.41,17.38,5.14,17.57,15.56.54,29.95.93,59.9,1.26,89.85.05,4.7-.73,9.41-.69,14.11.1,10.65.72,21.29.67,31.94-.07,13.51-.55,27.02-.94,40.53-.25,8.6-1.09,17.21-.9,25.81.34,15.57,1.31,31.12,1.88,46.68.21,5.74-.07,11.5.07,17.25.11,4.3.24,8.63.89,12.87,1.31,8.45,5.04,11.31,13.72,10.83,4.18-.23,8.34-1.09,12.51-1.13,14.92-.14,29.84-.06,44.77-.06ZM113.08,436.21c1.77,7.02,4.53,13.11,4.56,19.22.04,8.37,1.92,15.74,6.3,22.73.87,1.39,1.43,2.96,2.15,4.45,5.22,10.74,10.12,21.65,15.81,32.15,3.1,5.74,7.16,11.1,11.47,16.06,3.85,4.42,7.02,4.03,11.04-.4,1.66-1.82,2.78-4.1,4.38-5.98,4.52-5.36,8.63-11.2,13.86-15.82,11.23-9.91,32.14-11.39,43,6.01,6.06,9.72,9.14,20.18,8.2,31.63-.52,6.32-1.05,12.65-1.49,18.98-.37,5.28,1.82,9.69,5.62,13.2,3.19,2.94,6.66,5.66,10.28,8.08,7.36,4.93,13.48,10.91,18.75,17.98,3.16,4.23,7.18,8.04,11.46,11.22,6.44,4.79,12.05,10.07,16.19,16.94,4.65,7.71,9.53,9.61,18.57,7.79,9.8-1.98,18.78-5.81,26.79-11.71,11.51-8.48,20.78-19.08,29.41-30.22,3.33-4.31,5.45-9.26,5.63-14.78.47-14.75,1.1-29.5,1.22-44.26.13-15.39-.24-30.78-.44-46.17-.02-1.63-.27-3.26-.52-4.87-1.48-9.48-4.75-12.11-14.48-12.39-10.16-.28-20.09,1.28-29.93,3.34-23.36,4.89-47.35,6.24-70.58,12.01-5.78,1.44-11.95,2.14-18.05.47-5.04-1.38-9.14-3.97-9.83-9.18-.5-3.73-.33-7.98,1.08-11.4,1.93-4.66,4.79-9.19,8.17-12.99,13.75-15.49,27.87-30.65,41.79-45.99,8.18-9.02,16.24-18.14,25.02-27.95-2.15.35-3.33.44-4.46.75-28.39,7.58-54.82,3.45-79.38-12.43-9.01-5.83-16.61-13.09-23.85-20.85-5.38-5.77-9.38-5.91-15.07-.52-10.84,10.25-23.71,16.69-37.96,21.05-12.38,3.79-14.34,8.08-10.48,20.3,2.17,6.88,6.33,12.33,11.37,17.44,6.79,6.87,5.31,12.96-3.8,16.58-3.48,1.38-7.13,2.4-10.73,3.47-7.2,2.13-14.43,4.18-21.05,6.08ZM547.33,872.11c-1.71,10.02-4.83,14.19-13.01,16.24-12.65,3.17-25.52,5.43-38.56,2.57-10.85-2.38-21.94-4.53-27.79-15.69-1.57-3-4.16-3.02-6.79-.66-2.96,2.66-3.81,6.23-4.3,9.98-.35,2.62-.6,5.37-1.63,7.76-2.5,5.83-9.42,7.11-13.84,2.5-2.1-2.19-3.64-5-4.98-7.74-2.09-4.28-5.2-7.44-9.55-9.39-10.51-4.7-21.29-8.71-32.66-10.98-8.79-1.75-17.56-2.23-25.88,1.77-6.77,3.26-13.52,6.63-19.98,10.42-3.73,2.19-7.2,5.02-10.24,8.09-6.14,6.2-9.18,13.79-8.03,22.46,1.55,11.69,5.27,22.86,11.03,33.16,2.44,4.36,6.02,8.76,10.23,11.38,9.35,5.81,19.19,11.02,29.26,15.57,27,12.19,55.87,12.06,84.68,10.76,13.36-.6,26.68-2.58,39.97-4.3,17.53-2.27,34.04-7.81,48.26-18.14,8.03-5.83,14.89-13.24,21.96-20.24,2.29-2.27,3.99-5.32,5.25-8.31,2.37-5.62,1.84-11.25-1.57-16.45-2.86-4.35-6.39-5.48-11.35-3.71-1.97.7-3.82,1.77-5.83,2.31-6.62,1.77-11.85-2.28-11.48-8.98.12-2.2.9-4.39,1.53-6.55.85-2.95,2.24-5.81,2.69-8.8.92-6.13-1.16-11.16-7.39-15.02ZM815.88,473.66c-9.34,0-18.31-.27-27.26.06-16.75.6-33.5,1.46-50.24,2.39-7.73.43-15.53.75-23.12,2.07-7.23,1.26-10.82,5.84-11.01,13.01-.25,9.62-.18,19.27.12,28.89.37,11.89,1,23.77-1.97,35.47-1.53,6.04-.86,12,2.01,17.37,4.16,7.8,8.45,15.62,13.62,22.79,6.94,9.61,15.97,17.12,28.55,18.36,10.62,1.05,21.34,1.51,32.01,1.57,8.06.05,14.23-3.31,18.1-10.97,3.22-6.38,7.56-12.28,11.86-18.07,4.93-6.62,10.63-12.69,15.53-19.33,7.39-9.98,16.9-17.5,27.21-24.36,10.91-7.27,21.53-14.95,32.19-22.57,2.04-1.46,4.27-2.99,5.21-5.67-10.38-2.05-11.89-4.7-11.18-14.44.43-5.8-.71-11.76-1.58-17.59-.28-1.86-1.52-4.03-3.03-5.19-6.04-4.64-12.68-3.43-19.1-.85-4.94,1.99-6.9,6.18-5.94,12.84.84,5.85,2.22,11.63,3.51,17.4,1.4,6.29-.54,10.19-6.9,11.55-5.28,1.13-10.78,1.77-16.18,1.79-7.63.03-10.91-3.93-10.39-11.47.18-2.65.89-5.32.68-7.92-.75-9.14-1.8-18.25-2.71-27.13ZM859.12,795.37c-.53-3.89-1.06-10.86-2.51-17.65-1.67-7.81-6.88-12.24-15.21-13.4-10.66-1.48-19.63,1.72-26.86,9.1-14.5,14.78-24.73,31.95-29.52,52.06-3.19,13.35-6.47,26.69-10.12,39.93-.89,3.23-3.05,6.27-5.18,8.98-2.32,2.97-5.73,4.14-9.58,2.9-3.35-1.08-5.66-4.55-5.5-8.84.1-2.62.78-5.25,1.42-7.82,2.77-11.14,6.18-22.16,8.32-33.41,3.08-16.19,9.33-30.94,18.1-44.9,9.97-15.88,21.89-29.57,40.01-36.96,1.32-.54,2.54-1.44,3.62-2.38,2.09-1.83,2.42-4.15.08-5.74-2.5-1.71-5.35-3.33-8.29-3.96-8.74-1.88-17.51-.89-26.2.79-9.76,1.88-18.1,6.33-25.2,13.11-10.7,10.22-17.06,22.91-20.46,36.81-3.65,14.92-6.17,30.11-9.02,45.2-1.29,6.83-2.2,13.74-3.25,20.61-1.52,9.91-9.44,15.4-18.95,8.28-4.27-3.19-7.94-2.38-10.65,2.08-3.08,5.07-5.59,10.52-7.84,16-2.03,4.93-.55,9.59,3.86,12.56,7.85,5.29,8.15,12.15,5.63,20.11-1.79,5.67-3.5,11.4-4.64,17.22-1.25,6.4-2.37,12.9-.71,19.48,1.39,5.52,4.48,9.69,9.68,12.22,6.38,3.1,11.32.97,12.93-5.75.81-3.37,1.14-6.87,1.41-10.33,1.09-14.14,5.05-27.38,12.79-39.44,6.34-9.88,13.59-12.19,24.64-7.65,4.83,1.98,9.44,4.48,14.2,6.61,5.51,2.47,11.02,4.99,16.67,7.12,5.03,1.9,9.57.42,13.18-3.33,2.43-2.53,4.61-5.31,6.72-8.11,14.64-19.34,27.08-39.91,37.64-61.69,5.73-11.82,8.4-23.91,8.78-39.79ZM811.39,626.58c-.37,4.34.26,9.49,3.28,13.88,1.53,2.23,3.92,4.33,6.41,5.4,4.37,1.88,8.1-.71,8.06-5.34-.02-2.61-.98-5.2-1.38-7.82-.42-2.81-1.01-5.65-.91-8.46.11-3.06,1.93-5.45,4.97-6.51,2.98-1.04,6.03-.7,8.09,1.76,2.1,2.5,3.8,5.35,5.47,8.17,2.3,3.89,4.17,8.04,6.66,11.81,3.73,5.65,9.37,8.92,16.09,9.74,13.1,1.59,24.6-1.65,33.3-11.96,2.8-3.32,5.31-6.88,8.17-10.15,5.3-6.07,11.79-7.08,17.7-.8,5.46,5.81,10.65,4.95,15.15-1.78,6-8.98,4.99-19.72-2.49-27.74-4.26-4.57-9.78-6.91-15.56-8.93-2.74-.96-5.55-1.91-8.03-3.36-2.66-1.55-4.22-4.15-3.59-7.29.65-3.23,2.82-5.53,6.09-6.43,1.78-.49,3.73-.49,5.61-.55,2.94-.09,5.91.18,8.82-.12,5.41-.56,8.05-5.69,4.71-9.85-1.94-2.42-5.04-4.27-7.99-5.55-4.85-2.1-9.89-.35-14.85.35-2.25.32-4.6.63-6.82.33-3.33-.45-5.83-2.37-6.86-5.62-1.02-3.25-.17-6.3,2.5-8.32,2.25-1.7,4.91-3.41,7.62-3.91,5.52-1.04,11.2-1.52,16.83-1.76,5.59-.25,10.96-1.01,15.26-4.72,10.06-8.67,18.04-18.87,22.44-31.39,2.1-5.98,2.08-12.06-.75-17.95-3.88-8.08-11.06-10.17-18.48-5.05-2.71,1.87-5.2,4.19-7.29,6.71-10.83,13.06-21.38,26.34-32.27,39.35-3.7,4.42-7.61,8.91-12.25,12.29-11.09,8.09-22.54,15.73-34.1,23.19-9.41,6.07-17.46,13.34-24.07,22.27-4.05,5.47-8.46,10.69-12.83,15.93-7.15,8.58-13.07,17.63-12.73,30.2ZM496.25,218.93c-3.05.53-6.09,1.22-9.16,1.56-16.1,1.79-31.38-.82-45.59-8.57-5.09-2.78-10.26-4.19-16.26-3.48-3.62.43-7.72.07-11.08-1.23-7.33-2.84-13.61-1.99-20.15,2.22-9.38,6.04-19.77,9.83-30.99,11.32-2.06.27-4.14.8-6.09,1.52-4.28,1.58-5.48,4.17-3.54,8.22,1.32,2.76,3.2,5.27,4.85,7.89,17.93,28.45,21.36,58.16,8.1,89.3-.85,2-1.71,4.01-2.65,6.23,46.95-35.41,90.07-74.48,132.56-114.97ZM178.06,559.52c.44,3.32.39,9.24,2.09,14.63,4.37,13.86,9.43,27.52,14.42,41.19,1.52,4.17,4.55,7.44,8.67,9.38,8.28,3.88,12.97,10.13,13.76,19.08.46,5.2,3.25,8.9,7.88,11.07,8.66,4.05,13.12,10.84,15.45,19.73,1.38,5.27,3.58,10.52,6.42,15.2,3.78,6.23,9.66,9.45,17.51,8.23,8.22-1.28,13.11-5.88,15.02-13.68,2.41-9.85,2.91-19.81,2-29.88-.96-10.67-5.38-19.17-15.19-24.7-5.34-3.01-9.68-7.26-12.81-12.46-4.59-7.61-11.11-13.21-18.43-18.18-4.12-2.8-8.14-5.82-11.75-9.21-6.5-6.1-9.82-13.75-9.47-22.61.25-6.32.75-12.66,1.61-18.92.83-6.06.24-11.9-2.02-17.47-4.79-11.78-14.46-13.37-23.32-4.06-8.14,8.56-11.37,18.91-11.84,32.7ZM313.41,250.93c-.2-3-.31-7.31-.86-11.56-.31-2.4-1.13-4.79-2.07-7.06-5.01-12.16-17.81-16.09-28.8-8.57-3.54,2.42-6.67,5.64-9.38,8.97-9.9,12.15-16.48,26.1-21.93,40.55-7.21,19.14-12.05,38.78-11.73,59.35.11,7.22,1,14.32,4.73,20.75,6.2,10.68,18.16,13.55,28.44,6.58,3.05-2.07,5.83-4.72,8.19-7.55,8.98-10.77,14.71-23.29,19.64-36.19,7.88-20.65,13.34-41.78,13.75-65.28ZM803.3,394c1.22-1.43,2.71-2.85,3.8-4.5,11.16-16.85,22.43-33.64,33.28-50.68,4.64-7.29,3.77-11.3-2.65-17.42-11.4-10.88-22.9-21.68-34.46-32.41-7.44-6.91-15-13.71-22.64-20.41-2.6-2.28-5.66-5.4-9.35-3.2-3.49,2.08-2.52,6.29-2.08,9.66,1,7.7,2.31,15.36,3.57,23.03,1.72,10.5,2.95,21.17,9.82,30.08.49.63.72,1.48.95,2.27,1.12,3.83.01,6.91-3.55,8.9-1.78.99-3.83,1.64-5.85,2.09-3.6.8-7.27,1.33-10.89,1.97,13.41,16.96,26.65,33.69,40.05,50.64ZM599.86,121.03c-2.42-23.83-10.51-45.29-28.21-62.57-4.5-4.39-9.93-7.42-16.44-8.38-7.9-1.16-13.68,3.31-13.76,11-.03,2.65.05,5.35.55,7.94,3.58,18.48,7.14,36.96,11.02,55.38,1.04,4.95,2.72,9.9,4.96,14.45,2.85,5.81,8.15,8.46,14.81,8.69,15.54.54,27.7-9.99,27.07-26.51ZM158.17,581.72c-1.09-2.94-1.71-5.12-2.69-7.12-2.81-5.73-5.67-11.44-8.7-17.05-2.84-5.25-5.48-10.68-8.98-15.5-8.07-11.09-14.67-22.94-20.67-35.16-1-2.03-2.01-4.09-3.34-5.91-3.66-5.02-7.06-5.62-12.37-2.39-.53.32-1,.76-1.53,1.08-5.83,3.61-11.58,7.36-17.53,10.77-6.67,3.82-7.85,7.64-3.77,14.13,1.21,1.92,2.7,3.67,3.9,5.59,9.89,15.94,22.09,30.4,30.86,47.09,2.9,5.53,7.63,10.23,11.96,14.92,3.52,3.81,8.31,4.9,13.25,2.87,5.01-2.06,10.03-4.27,14.62-7.08,2.22-1.36,3.47-4.23,5.02-6.23ZM451.4,138.22c.23.05.46.11.69.16.35,4.9.55,9.82,1.07,14.7,1.26,11.87,3.69,23.48,8.64,34.49,2.23,4.95,5.02,9.48,9.32,12.98,6.54,5.33,14.91,4.68,19.84-2.1,2.36-3.24,4.01-7.23,4.99-11.12,2.42-9.63,2.1-19.49,1.48-29.32-.98-15.46-3.89-30.54-10.44-44.71-1.85-4-4.75-7.8-7.98-10.87-6.12-5.83-14.74-4.77-19.57,2.12-1.74,2.49-3.29,5.4-3.87,8.32-1.68,8.4-2.82,16.9-4.18,25.37ZM700.03,269.71c1.32-4.47,2.5-7.53,3.1-10.69.79-4.21,1.27-8.49,1.65-12.76,1.17-13.03,2.62-26.05,3.24-39.11.63-13.3-1.59-15.8-14.65-19.56-21.09-6.07-42.19-12.11-63.29-18.13-1.45-.41-2.99-.48-4.49-.71,8.75,10.53,14.97,22.11,21.39,33.58,1.2,2.14,2.94,3.98,4.45,5.95,8.15,10.64,16.21,21.35,24.49,31.9,4.96,6.33,10.28,12.39,15.4,18.61,2.6,3.16,5.11,6.4,8.72,10.93ZM829.17,421.27c1.72.43,3.96.91,6.15,1.55,6.16,1.82,8.14,4.46,8.07,10.73-.01,1.43-.37,2.87-.29,4.29.27,5.1.15,10.28,1.13,15.25,1.45,7.31,6.15,10.25,13.66,9.52,1.46-.14,2.92-.26,4.36-.52,7.22-1.29,10.49-5.04,10.63-12.29.14-7.09-1.79-13.72-4.51-20.26-1.14-2.75-2.1-6.01-1.68-8.84.45-3.06,2.33-6.04,4.04-8.79,5.4-8.71,3.17-14.94-6.95-17.69-6.25-1.69-12.66-2.88-19.06-3.97-11.9-2.04-16.37,2.16-15.62,13.93.35,5.43.06,10.9.06,17.09ZM152.95,331.02c-1.47-13.58-7.5-28.57-19.68-40.8-3.49-3.5-7.61-6.44-12.84-7.35-6.47-1.12-11.37,2.38-11.66,8.75-.12,2.62.17,5.35.86,7.88,2.19,8.1,4.59,16.16,7.03,24.19,2.15,7.06,4.27,14.13,6.76,21.08,3.78,10.5,14.16,10.79,21.06,6.79,6.8-3.94,8.72-10.1,8.47-20.54ZM743.23,951.03c.18.02.35.05.52.07,0,1.23-.05,2.46,0,3.68.41,9.45,7.92,15.4,17.48,13.59,2.84-.54,5.84-1.33,8.24-2.83,8.27-5.16,16.34-10.65,24.4-16.12,1.33-.91,2.35-2.33,3.34-3.64,5.18-6.87,4.03-12.12-3.91-15.81-9.43-4.38-19.07-8.36-28.63-12.48-.95-.41-1.97-.65-2.98-.9-4.88-1.18-8.8.09-11.3,4.3-1.76,2.97-3.36,6.24-4.04,9.57-1.39,6.78-2.12,13.69-3.11,20.55ZM269.24,760.38c-1.2-3.1-1.79-5.54-3.01-7.63-6.62-11.4-13.15-22.86-20.22-33.99-3.06-4.82-7.08-9.15-11.17-13.22-3.39-3.38-7.58-3.69-10.92-1.41-6.02,4.1-9.93,11.56-3.28,18.91,3.19,3.53,6.23,7.19,9.37,10.76,8.33,9.47,16.66,18.94,25.06,28.35,1.08,1.21,2.41,2.53,3.89,3.02,2.02.67,4.78,1.44,6.35.6,1.84-.98,2.75-3.65,3.93-5.39ZM934.22,462.05c-2.69-2.3-5.72-4.5-8.23-7.17-2.53-2.7-4.57-5.84-6.76-8.83-.97-1.33-1.74-2.8-2.72-4.13-3.42-4.67-6.45-6.14-9.79-4.84-2.53.99-4.36,5.31-3.91,9.68,1.2,11.79,2.44,23.58,3.75,35.36.35,3.15,1.04,6.26,1.74,10.32,9.07-10.63,17.42-20.43,25.92-30.39ZM171.79,701.63c-.07,7.38,3.28,10.25,9.19,9.1,7.14-1.39,13.39-4.76,18.83-9.34,5.91-4.98,10.56-11,13.77-18.03,2.3-5.03-1.49-9.92-7.17-8.24-1.99.59-4.08,1.05-5.89,1.99-6.46,3.35-12.93,6.72-19.2,10.4-5.93,3.49-8.98,8.91-9.54,14.11ZM165.82,616.5c.1-5.93-2.66-8.94-7.29-8.75-2.44.1-5.07.73-7.22,1.85-7.01,3.65-13.93,7.48-20.68,11.56-2.44,1.48-4.46,3.72-6.4,5.85-2.12,2.33-3.89,4.97-2.19,8.33,1.66,3.28,5.05,4.01,8.04,3.71,12.91-1.3,24.38-5.85,32.68-16.09,1.73-2.14,2.43-5.08,3.06-6.46ZM150.64,676.11c1.46-.28,3.17-.41,4.73-.95,10.71-3.68,21.15-8,30.61-14.21,2.4-1.58,4.59-3.66,6.37-5.89,1.94-2.43,3.4-5.31,1.4-8.51-1.62-2.58-4.56-3.22-9.02-1.99-.81.22-1.62.47-2.38.81-9.32,4.21-18.8,8.13-27.85,12.81-3.74,1.94-7.19,5.11-9.69,8.49-3.51,4.76-.39,9.52,5.82,9.44ZM715.95,288.13c12.88,15.27,24.81,29.41,36.89,43.72.36-.66.72-1.11.88-1.62.3-.98.6-1.97.72-2.98,1.18-9.73-.24-19.22-3.22-28.47-1.51-4.71-5.35-7.33-10.28-7.95-7.87-1-15.77-1.72-24.99-2.7ZM860.57,375.49c6.49-.05,10.04-3.16,9.67-9.13-.36-5.64-1.28-11.34-2.79-16.8-1.71-6.18-5.6-6.85-9.71-1.84-2.98,3.63-5.45,7.7-7.89,11.72-5.62,9.27-1.79,13.85,8.15,15.86,1.01.2,2.08.15,2.58.18Z"/>
          <path d="M524.08,739.52c-16.95-.38-29.8-4.32-41.56-11.65-11.43-7.13-20.95-16.32-30.03-26.09-10.33-11.11-20.63-22.22-27.77-35.63-10.45-19.64-16.18-40.39-14.24-62.72.28-3.19,1.22-6.51,2.66-9.39,2.84-5.72,8.22-7.51,14.29-5.2,1.94.74,3.95,1.58,5.56,2.83,10.16,7.92,22.05,11.71,34.57,13.98,12.37,2.24,24.71,4.97,37.41,4.38,6.7-.31,13.37-1.11,20.06-1.64,8.77-.69,17.55-1.28,26.32-2.04,2.49-.22,5-.7,7.41-1.35,19.83-5.35,39.41-11.37,57.94-20.32,7.54-3.64,15.33-6.72,24.01-6.65,13.57.11,22.87,8.3,23.39,21.52.2,5.01-.41,10.4-2.17,15.07-11.92,31.65-28.05,60.97-52.13,85.57-17.33,17.7-37.53,30.91-62.49,35.91-8.59,1.72-17.37,2.57-23.21,3.41ZM522.4,721.98c9.43-1.79,18.99-3.12,28.27-5.48,16.69-4.24,30.38-13.6,42.29-25.52,3.94-3.94,7.93-7.98,11.05-12.52,3.92-5.73,1.57-9.36-5.47-9.35-1.67,0-3.43,0-4.98.52-5.93,1.95-12.05,3.6-17.63,6.3-11.38,5.51-20.97,13.49-29.71,22.45-2.01,2.07-4.18,4.05-6.53,5.73-2.96,2.11-6.23,2.3-9.34.14-2.92-2.04-3.55-5.04-2.92-8.23.44-2.19,1.43-4.27,2.19-6.39,2.26-6.37.04-10.38-6.66-11.83-1.83-.39-3.78-.92-5.58-.7-12.4,1.54-24.19,5.13-34.9,11.44-7.02,4.13-7.53,10.19-1.49,15.7,3.5,3.19,7.54,5.87,11.56,8.44,8.99,5.74,18.82,8.88,29.85,9.31Z"/>
          <path d="M435.62,511.89c-.08-27.57,7.54-52.95,22.55-76.28,4.92-7.64,9.49-15.5,14.41-23.14,7.46-11.59,17.78-20.07,30.32-26.09,17.75-8.52,36.78-2.33,46.97,11.61,1.46,2,2.72,4.16,4.27,6.09,3.86,4.79,7.37,5.37,12.54,2.11,1.76-1.11,3.48-2.33,5.01-3.71,19.38-17.47,44.31-15.02,62.87-1.39,8.48,6.23,15.52,13.78,20.23,23.22,3.48,6.97,3.96,14.61,5.15,22.07.88,5.46,1.04,11.03,2.01,16.46,1.3,7.23,1.04,14.53-1,21.34-3.93,13.15-8.37,26.22-13.62,38.92-3.76,9.08-8.97,17.61-13.93,26.17-4.92,8.49-11.71,15.5-19.87,21.15-12.95,8.96-27.4,9.19-40.61.57-9.86-6.44-18.35-14.31-25.25-23.79-6.34-8.7-10.33-8.49-15.11,1.02-3.27,6.51-7.18,12.39-12.54,17.53-11.71,11.22-25.24,14.71-41.03,10.59-25.28-6.6-43.07-27.71-43.37-54.58-.04-3.29,0-6.57,0-9.86ZM589.94,450.59c-5.51,1.17-11.08,2.1-16.5,3.56-8.5,2.28-14.08,7.83-17.19,15.8-2.35,6.01-3.73,12.32-2.87,18.68,1.68,12.37,3.55,24.73,5.95,36.98,2.91,14.87,13.04,24.39,26.16,31.24,4.51,2.35,9.53,2.48,13.94.11,3.96-2.13,7.78-4.88,10.9-8.07,5.33-5.45,5.53-10.05.5-15.83-8.38-9.64-11.53-20.89-11.07-33.07.37-9.78,1.89-19.52,2.91-29.28.23-2.24.66-4.47.71-6.72.21-9.34-3.64-13.01-13.44-13.39ZM489.75,471.75s-.09,0-.14,0c0-3.08.38-6.2-.08-9.21-.92-6.06-4.74-8.33-10.85-6.72-8.7,2.3-14.77,7.47-17.76,15.91-6.07,17.08-8.67,34.49-6.65,52.61,1.91,17.14,12.39,29.91,29.36,34.45,9.63,2.58,19.82-.86,25.75-8.69,3.06-4.04,3.06-8.56-.35-12.38-1.78-1.99-3.93-3.69-6.05-5.36-5.77-4.54-9.52-10.32-11.33-17.29-1.85-7.16-3.48-14.37-3.06-21.85.4-7.16.77-14.32,1.15-21.47ZM529.48,433.83c7.38.21,10.62-2.3,10.54-8.08-.1-7.34-2.18-14.23-7.78-19.47-4.79-4.48-10.53-6.45-17.26-4.68-10.64,2.8-18.39,9.42-24.71,17.85-2.23,2.97-4.58,6.45-2.25,10.13,2.28,3.58,6.42,2.98,10.23,2.94,8.13-.09,16.27-.04,24.4.19,2.68.07,5.34.87,6.83,1.13ZM627.6,437.51c7.83.33,10.28-3.28,7.43-9.33-.52-1.11-1.06-2.26-1.81-3.23-6.28-8.09-14.12-13.94-24.53-15.98-11.79-2.31-25.94,4.2-31.55,14.47-2.81,5.15-1.52,8.19,4.35,9.31,3.05.58,6.29.88,9.36.56,11.03-1.15,21.74.2,32.32,3.13,1.81.5,3.65.88,4.44,1.07ZM524.32,476.01c6.86-.03,11.92-5.09,11.73-11.74-.17-6.06-4.93-10.55-10.95-10.31-6.41.25-11.61,5.87-11.44,12.34.16,5.8,4.48,9.74,10.65,9.71ZM623.17,471.34c.09,6.75,4.17,11.42,9.84,11.29,5.68-.13,10.98-6.22,10.75-12.37-.23-6.24-5.23-10.9-11.44-10.67-5.8.22-9.25,4.64-9.16,11.74Z"/>
          <path d="M610.97,345.58c10.99.27,21.34,2.74,31.45,6.31,10.47,3.7,20.78,7.86,29.81,14.3,3.98,2.84,7.31,6.65,10.59,10.31,1.29,1.44,2.05,3.63,2.32,5.58.84,6.05-4.57,10.39-10.38,8.21-2.46-.92-4.7-2.65-6.74-4.35-15.52-12.87-33.65-19.76-53.66-21.83-5.51-.57-11.23.83-16.85,1.3-3.96.33-7.92.89-11.87.88-3.77-.01-6.93-2.42-7.65-5.31-.9-3.59.31-6.62,3.43-8.53,2.44-1.5,5.16-2.92,7.94-3.47,7.15-1.41,14.41-2.31,21.62-3.41Z"/>
          <path d="M521.95,368.47c-2.51-.49-5.78-1.17-9.07-1.77-10.28-1.86-20.61-4.19-31.07-1.9-5.23,1.15-10.37,3.06-15.25,5.28-4.15,1.88-7.78,4.82-11.78,7.05-2.52,1.4-5.22,2.74-8.01,3.41-3.44.82-6.69-.08-8.83-3.22-1.73-2.54-1.47-6.26.72-9.19.74-.98,1.62-1.89,2.58-2.68,11.2-9.23,23.38-16.85,38.2-18.72,10.39-1.31,20.91-.59,31.26,1.27,4.51.81,8.98,1.91,13.39,3.15,1.95.55,3.89,1.53,5.51,2.74,2.55,1.9,4.69,4.34,3.82,7.8-.94,3.76-3.8,5.76-7.55,6.55-1.01.21-2.09.13-3.94.23Z"/>
        </g>
      </g>
    </g>
  </g>
</svg>